<svg width="23" height="27" viewBox="0 0 23 27" fill="none" xmlns="http://www.w3.org/2000/svg">
<g clip-path="url(#clip0_9_1735)">
<path d="M7.75 1H1.5C0.119288 1 -1 2.11929 -1 3.5V12.25C-1 13.6307 0.119288 14.75 1.5 14.75H7.75C9.13071 14.75 10.25 13.6307 10.25 12.25V3.5C10.25 2.11929 9.13071 1 7.75 1Z" fill="black"/>
<path d="M21.5 1H15.25C13.8693 1 12.75 2.11929 12.75 3.5V7.25C12.75 8.63071 13.8693 9.75 15.25 9.75H21.5C22.8807 9.75 24 8.63071 24 7.25V3.5C24 2.11929 22.8807 1 21.5 1Z" fill="black"/>
<path d="M7.75 17.25H1.5C0.119288 17.25 -1 18.3693 -1 19.75V23.5C-1 24.8807 0.119288 26 1.5 26H7.75C9.13071 26 10.25 24.8807 10.25 23.5V19.75C10.25 18.3693 9.13071 17.25 7.75 17.25Z" fill="black"/>
<path d="M21.5 12.25H15.25C13.8693 12.25 12.75 13.3693 12.75 14.75V23.5C12.75 24.8807 13.8693 26 15.25 26H21.5C22.8807 26 24 24.8807 24 23.5V14.75C24 13.3693 22.8807 12.25 21.5 12.25Z" fill="black"/>
</g>
<defs>
<clipPath id="clip0_9_1735">
<path d="M0 0H9.5C16.9558 0 23 6.04416 23 13.5C23 20.9558 16.9558 27 9.5 27H0V0Z" fill="white"/>
</clipPath>
</defs>
</svg>
