<svg width="20" height="20" viewBox="0 0 20 20" fill="none" xmlns="http://www.w3.org/2000/svg">
<g clip-path="url(#clip0_9_1707)">
<path d="M19.7902 18.0566C19.673 17.8809 16.8412 13.75 9.99961 13.75C3.15992 13.75 0.326793 17.8809 0.209606 18.0566C-0.172582 18.6316 -0.0175819 19.4066 0.556168 19.79C1.12992 20.1722 1.90617 20.0172 2.28961 19.4434C2.31148 19.4116 4.48336 16.25 9.99961 16.25C15.4421 16.25 17.6246 19.3213 17.7102 19.4434C17.9518 19.8047 18.3474 20 18.7527 20C18.9896 20 19.2312 19.9316 19.4437 19.79C20.0174 19.4069 20.1737 18.6316 19.7902 18.0566Z" fill="black"/>
<path d="M9.99976 12.5C12.761 12.5 14.9998 10.2625 14.9998 7.5V5C14.9998 2.2375 12.761 0 9.99976 0C7.23851 0 4.99976 2.2375 4.99976 5V7.5C4.99976 10.2625 7.23851 12.5 9.99976 12.5ZM7.49976 5C7.49976 3.61937 8.62038 2.5 9.99976 2.5C11.3816 2.5 12.4998 3.61937 12.4998 5V7.5C12.4998 8.88062 11.3816 10 9.99976 10C8.62038 10 7.49976 8.88062 7.49976 7.5V5Z" fill="black"/>
<g clip-path="url(#clip1_9_1707)">
<path d="M7.09941 16.2671C7.04316 16.1828 5.68386 14.2 2.39991 14.2C-0.883141 14.2 -2.24304 16.1828 -2.29929 16.2671C-2.48274 16.5431 -2.40834 16.9151 -2.13294 17.0992C-1.85754 17.2826 -1.48494 17.2082 -1.30089 16.9328C-1.29039 16.9175 -0.247891 15.4 2.39991 15.4C5.01231 15.4 6.05991 16.8742 6.10101 16.9328C6.21696 17.1062 6.40686 17.2 6.60141 17.2C6.71511 17.2 6.83106 17.1671 6.93306 17.0992C7.20846 16.9153 7.28346 16.5431 7.09941 16.2671Z" fill="black"/>
<path d="M2.4 13.6C3.7254 13.6 4.8 12.526 4.8 11.2V9.99998C4.8 8.67398 3.7254 7.59998 2.4 7.59998C1.0746 7.59998 0 8.67398 0 9.99998V11.2C0 12.526 1.0746 13.6 2.4 13.6ZM1.2 9.99998C1.2 9.33728 1.7379 8.79998 2.4 8.79998C3.0633 8.79998 3.6 9.33728 3.6 9.99998V11.2C3.6 11.8627 3.0633 12.4 2.4 12.4C1.7379 12.4 1.2 11.8627 1.2 11.2V9.99998Z" fill="black"/>
</g>
<g clip-path="url(#clip2_9_1707)">
<path d="M22.4993 16.6671C22.4431 16.5828 21.0838 14.6 17.7998 14.6C14.5168 14.6 13.1569 16.5828 13.1006 16.6671C12.9172 16.9431 12.9916 17.3151 13.267 17.4992C13.5424 17.6826 13.915 17.6082 14.099 17.3328C14.1095 17.3175 15.152 15.8 17.7998 15.8C20.4122 15.8 21.4598 17.2742 21.5009 17.3328C21.6169 17.5062 21.8068 17.6 22.0013 17.6C22.115 17.6 22.231 17.5671 22.333 17.4992C22.6084 17.3153 22.6834 16.9431 22.4993 16.6671Z" fill="black"/>
<path d="M17.7999 14C19.1253 14 20.1999 12.926 20.1999 11.6V10.4C20.1999 9.074 19.1253 8 17.7999 8C16.4745 8 15.3999 9.074 15.3999 10.4V11.6C15.3999 12.926 16.4745 14 17.7999 14ZM16.5999 10.4C16.5999 9.7373 17.1378 9.2 17.7999 9.2C18.4632 9.2 18.9999 9.7373 18.9999 10.4V11.6C18.9999 12.2627 18.4632 12.8 17.7999 12.8C17.1378 12.8 16.5999 12.2627 16.5999 11.6V10.4Z" fill="black"/>
</g>
</g>
<defs>
<clipPath id="clip0_9_1707">
<rect width="20" height="20" fill="white"/>
</clipPath>
<clipPath id="clip1_9_1707">
<rect width="9.6" height="9.6" fill="white" transform="translate(-2.3999 7.59998)"/>
</clipPath>
<clipPath id="clip2_9_1707">
<rect width="9.6" height="9.6" fill="white" transform="translate(13 8)"/>
</clipPath>
</defs>
</svg>
