<svg width="70" height="29" viewBox="0 0 70 29" fill="none" xmlns="http://www.w3.org/2000/svg">
<path d="M2.93945 14.834C2.30143 14.834 1.80013 14.6654 1.43555 14.3281C1.07096 13.9909 0.888672 13.5898 0.888672 13.125C0.888672 12.6602 1.07096 12.2591 1.43555 11.9219C1.80013 11.5846 2.30143 11.416 2.93945 11.416H7.56055C8.19857 11.416 8.69987 11.5846 9.06445 11.9219C9.42904 12.2591 9.61133 12.6602 9.61133 13.125C9.61133 13.5898 9.42904 13.9909 9.06445 14.3281C8.69987 14.6654 8.19857 14.834 7.56055 14.834H2.93945ZM2.93945 13.084C2.30143 13.084 1.80013 12.9154 1.43555 12.5781C1.07096 12.2409 0.888672 11.8398 0.888672 11.375C0.888672 10.9102 1.07096 10.5091 1.43555 10.1719C1.80013 9.83464 2.30143 9.66602 2.93945 9.66602H4.06055C4.69857 9.66602 5.19987 9.83464 5.56445 10.1719C5.92904 10.5091 6.11133 10.9102 6.11133 11.375C6.11133 11.8398 5.92904 12.2409 5.56445 12.5781C5.19987 12.9154 4.69857 13.084 4.06055 13.084H2.93945ZM8.18945 13.084C7.55143 13.084 7.05013 12.9154 6.68555 12.5781C6.32096 12.2409 6.13867 11.8398 6.13867 11.375C6.13867 10.9102 6.32096 10.5091 6.68555 10.1719C7.05013 9.83464 7.55143 9.66602 8.18945 9.66602H9.31055C9.94857 9.66602 10.4499 9.83464 10.8145 10.1719C11.179 10.5091 11.3613 10.9102 11.3613 11.375C11.3613 11.8398 11.179 12.2409 10.8145 12.5781C10.4499 12.9154 9.94857 13.084 9.31055 13.084H8.18945ZM2.93945 11.334C2.30143 11.334 1.80013 11.1654 1.43555 10.8281C1.07096 10.4909 0.888672 10.0898 0.888672 9.625C0.888672 9.16016 1.07096 8.75911 1.43555 8.42188C1.80013 8.08464 2.30143 7.91602 2.93945 7.91602H4.06055C4.69857 7.91602 5.19987 8.08464 5.56445 8.42188C5.92904 8.75911 6.11133 9.16016 6.11133 9.625C6.11133 10.0898 5.92904 10.4909 5.56445 10.8281C5.19987 11.1654 4.69857 11.334 4.06055 11.334H2.93945ZM9.93945 11.334C9.30143 11.334 8.80013 11.1654 8.43555 10.8281C8.07096 10.4909 7.88867 10.0898 7.88867 9.625C7.88867 9.16016 8.07096 8.75911 8.43555 8.42188C8.80013 8.08464 9.30143 7.91602 9.93945 7.91602H11.0605C11.6986 7.91602 12.1999 8.08464 12.5645 8.42188C12.929 8.75911 13.1113 9.16016 13.1113 9.625C13.1113 10.0898 12.929 10.4909 12.5645 10.8281C12.1999 11.1654 11.6986 11.334 11.0605 11.334H9.93945ZM2.93945 9.58398C2.30143 9.58398 1.80013 9.41536 1.43555 9.07812C1.07096 8.74089 0.888672 8.33984 0.888672 7.875C0.888672 7.41016 1.07096 7.00911 1.43555 6.67188C1.80013 6.33464 2.30143 6.16602 2.93945 6.16602H4.06055C4.69857 6.16602 5.19987 6.33464 5.56445 6.67188C5.92904 7.00911 6.11133 7.41016 6.11133 7.875C6.11133 8.33984 5.92904 8.74089 5.56445 9.07812C5.19987 9.41536 4.69857 9.58398 4.06055 9.58398H2.93945ZM9.93945 9.58398C9.30143 9.58398 8.80013 9.41536 8.43555 9.07812C8.07096 8.74089 7.88867 8.33984 7.88867 7.875C7.88867 7.41016 8.07096 7.00911 8.43555 6.67188C8.80013 6.33464 9.30143 6.16602 9.93945 6.16602H11.0605C11.6986 6.16602 12.1999 6.33464 12.5645 6.67188C12.929 7.00911 13.1113 7.41016 13.1113 7.875C13.1113 8.33984 12.929 8.74089 12.5645 9.07812C12.1999 9.41536 11.6986 9.58398 11.0605 9.58398H9.93945ZM2.93945 7.83398C2.30143 7.83398 1.80013 7.66536 1.43555 7.32812C1.07096 6.99089 0.888672 6.58984 0.888672 6.125C0.888672 5.66016 1.07096 5.25911 1.43555 4.92188C1.80013 4.58464 2.30143 4.41602 2.93945 4.41602H4.06055C4.69857 4.41602 5.19987 4.58464 5.56445 4.92188C5.92904 5.25911 6.11133 5.66016 6.11133 6.125C6.11133 6.58984 5.92904 6.99089 5.56445 7.32812C5.19987 7.66536 4.69857 7.83398 4.06055 7.83398H2.93945ZM9.93945 7.83398C9.30143 7.83398 8.80013 7.66536 8.43555 7.32812C8.07096 6.99089 7.88867 6.58984 7.88867 6.125C7.88867 5.66016 8.07096 5.25911 8.43555 4.92188C8.80013 4.58464 9.30143 4.41602 9.93945 4.41602H11.0605C11.6986 4.41602 12.1999 4.58464 12.5645 4.92188C12.929 5.25911 13.1113 5.66016 13.1113 6.125C13.1113 6.58984 12.929 6.99089 12.5645 7.32812C12.1999 7.66536 11.6986 7.83398 11.0605 7.83398H9.93945ZM2.93945 6.08398C2.30143 6.08398 1.80013 5.91536 1.43555 5.57812C1.07096 5.24089 0.888672 4.83984 0.888672 4.375C0.888672 3.91016 1.07096 3.50911 1.43555 3.17188C1.80013 2.83464 2.30143 2.66602 2.93945 2.66602H4.06055C4.69857 2.66602 5.19987 2.83464 5.56445 3.17188C5.92904 3.50911 6.11133 3.91016 6.11133 4.375C6.11133 4.83984 5.92904 5.24089 5.56445 5.57812C5.19987 5.91536 4.69857 6.08398 4.06055 6.08398H2.93945ZM8.18945 6.08398C7.55143 6.08398 7.05013 5.91536 6.68555 5.57812C6.32096 5.24089 6.13867 4.83984 6.13867 4.375C6.13867 3.91016 6.32096 3.50911 6.68555 3.17188C7.05013 2.83464 7.55143 2.66602 8.18945 2.66602H9.31055C9.94857 2.66602 10.4499 2.83464 10.8145 3.17188C11.179 3.50911 11.3613 3.91016 11.3613 4.375C11.3613 4.83984 11.179 5.24089 10.8145 5.57812C10.4499 5.91536 9.94857 6.08398 9.31055 6.08398H8.18945ZM2.93945 4.33398C2.30143 4.33398 1.80013 4.16536 1.43555 3.82812C1.07096 3.49089 0.888672 3.08984 0.888672 2.625C0.888672 2.16016 1.07096 1.75911 1.43555 1.42188C1.80013 1.08464 2.30143 0.916016 2.93945 0.916016H7.56055C8.19857 0.916016 8.69987 1.08464 9.06445 1.42188C9.42904 1.75911 9.61133 2.16016 9.61133 2.625C9.61133 3.08984 9.42904 3.49089 9.06445 3.82812C8.69987 4.16536 8.19857 4.33398 7.56055 4.33398H2.93945ZM18.6895 14.834C18.0514 14.834 17.5501 14.6654 17.1855 14.3281C16.821 13.9909 16.6387 13.5898 16.6387 13.125C16.6387 12.6602 16.821 12.2591 17.1855 11.9219C17.5501 11.5846 18.0514 11.416 18.6895 11.416H23.3105C23.9486 11.416 24.4499 11.5846 24.8145 11.9219C25.179 12.2591 25.3613 12.6602 25.3613 13.125C25.3613 13.5898 25.179 13.9909 24.8145 14.3281C24.4499 14.6654 23.9486 14.834 23.3105 14.834H18.6895ZM16.9395 13.084C16.3014 13.084 15.8001 12.9154 15.4355 12.5781C15.071 12.2409 14.8887 11.8398 14.8887 11.375C14.8887 10.9102 15.071 10.5091 15.4355 10.1719C15.8001 9.83464 16.3014 9.66602 16.9395 9.66602H18.0605C18.6986 9.66602 19.1999 9.83464 19.5645 10.1719C19.929 10.5091 20.1113 10.9102 20.1113 11.375C20.1113 11.8398 19.929 12.2409 19.5645 12.5781C19.1999 12.9154 18.6986 13.084 18.0605 13.084H16.9395ZM23.9395 13.084C23.3014 13.084 22.8001 12.9154 22.4355 12.5781C22.071 12.2409 21.8887 11.8398 21.8887 11.375C21.8887 10.9102 22.071 10.5091 22.4355 10.1719C22.8001 9.83464 23.3014 9.66602 23.9395 9.66602H25.0605C25.6986 9.66602 26.1999 9.83464 26.5645 10.1719C26.929 10.5091 27.1113 10.9102 27.1113 11.375C27.1113 11.8398 26.929 12.2409 26.5645 12.5781C26.1999 12.9154 25.6986 13.084 25.0605 13.084H23.9395ZM16.9395 11.334C16.3014 11.334 15.8001 11.1654 15.4355 10.8281C15.071 10.4909 14.8887 10.0898 14.8887 9.625C14.8887 9.16016 15.071 8.75911 15.4355 8.42188C15.8001 8.08464 16.3014 7.91602 16.9395 7.91602H18.0605C18.6986 7.91602 19.1999 8.08464 19.5645 8.42188C19.929 8.75911 20.1113 9.16016 20.1113 9.625C20.1113 10.0898 19.929 10.4909 19.5645 10.8281C19.1999 11.1654 18.6986 11.334 18.0605 11.334H16.9395ZM23.9395 11.334C23.3014 11.334 22.8001 11.1654 22.4355 10.8281C22.071 10.4909 21.8887 10.0898 21.8887 9.625C21.8887 9.16016 22.071 8.75911 22.4355 8.42188C22.8001 8.08464 23.3014 7.91602 23.9395 7.91602H25.0605C25.6986 7.91602 26.1999 8.08464 26.5645 8.42188C26.929 8.75911 27.1113 9.16016 27.1113 9.625C27.1113 10.0898 26.929 10.4909 26.5645 10.8281C26.1999 11.1654 25.6986 11.334 25.0605 11.334H23.9395ZM16.9395 9.58398C16.3014 9.58398 15.8001 9.41536 15.4355 9.07812C15.071 8.74089 14.8887 8.33984 14.8887 7.875C14.8887 7.41016 15.071 7.00911 15.4355 6.67188C15.8001 6.33464 16.3014 6.16602 16.9395 6.16602H18.0605C18.6986 6.16602 19.1999 6.33464 19.5645 6.67188C19.929 7.00911 20.1113 7.41016 20.1113 7.875C20.1113 8.33984 19.929 8.74089 19.5645 9.07812C19.1999 9.41536 18.6986 9.58398 18.0605 9.58398H16.9395ZM23.9395 9.58398C23.3014 9.58398 22.8001 9.41536 22.4355 9.07812C22.071 8.74089 21.8887 8.33984 21.8887 7.875C21.8887 7.41016 22.071 7.00911 22.4355 6.67188C22.8001 6.33464 23.3014 6.16602 23.9395 6.16602H25.0605C25.6986 6.16602 26.1999 6.33464 26.5645 6.67188C26.929 7.00911 27.1113 7.41016 27.1113 7.875C27.1113 8.33984 26.929 8.74089 26.5645 9.07812C26.1999 9.41536 25.6986 9.58398 25.0605 9.58398H23.9395ZM16.9395 7.83398C16.3014 7.83398 15.8001 7.66536 15.4355 7.32812C15.071 6.99089 14.8887 6.58984 14.8887 6.125C14.8887 5.66016 15.071 5.25911 15.4355 4.92188C15.8001 4.58464 16.3014 4.41602 16.9395 4.41602H18.0605C18.6986 4.41602 19.1999 4.58464 19.5645 4.92188C19.929 5.25911 20.1113 5.66016 20.1113 6.125C20.1113 6.58984 19.929 6.99089 19.5645 7.32812C19.1999 7.66536 18.6986 7.83398 18.0605 7.83398H16.9395ZM23.9395 7.83398C23.3014 7.83398 22.8001 7.66536 22.4355 7.32812C22.071 6.99089 21.8887 6.58984 21.8887 6.125C21.8887 5.66016 22.071 5.25911 22.4355 4.92188C22.8001 4.58464 23.3014 4.41602 23.9395 4.41602H25.0605C25.6986 4.41602 26.1999 4.58464 26.5645 4.92188C26.929 5.25911 27.1113 5.66016 27.1113 6.125C27.1113 6.58984 26.929 6.99089 26.5645 7.32812C26.1999 7.66536 25.6986 7.83398 25.0605 7.83398H23.9395ZM16.9395 6.08398C16.3014 6.08398 15.8001 5.91536 15.4355 5.57812C15.071 5.24089 14.8887 4.83984 14.8887 4.375C14.8887 3.91016 15.071 3.50911 15.4355 3.17188C15.8001 2.83464 16.3014 2.66602 16.9395 2.66602H18.0605C18.6986 2.66602 19.1999 2.83464 19.5645 3.17188C19.929 3.50911 20.1113 3.91016 20.1113 4.375C20.1113 4.83984 19.929 5.24089 19.5645 5.57812C19.1999 5.91536 18.6986 6.08398 18.0605 6.08398H16.9395ZM23.9395 6.08398C23.3014 6.08398 22.8001 5.91536 22.4355 5.57812C22.071 5.24089 21.8887 4.83984 21.8887 4.375C21.8887 3.91016 22.071 3.50911 22.4355 3.17188C22.8001 2.83464 23.3014 2.66602 23.9395 2.66602H25.0605C25.6986 2.66602 26.1999 2.83464 26.5645 3.17188C26.929 3.50911 27.1113 3.91016 27.1113 4.375C27.1113 4.83984 26.929 5.24089 26.5645 5.57812C26.1999 5.91536 25.6986 6.08398 25.0605 6.08398H23.9395ZM16.9395 4.33398C16.3014 4.33398 15.8001 4.16536 15.4355 3.82812C15.071 3.49089 14.8887 3.08984 14.8887 2.625C14.8887 2.16016 15.071 1.75911 15.4355 1.42188C15.8001 1.08464 16.3014 0.916016 16.9395 0.916016H18.0605C18.6986 0.916016 19.1999 1.08464 19.5645 1.42188C19.929 1.75911 20.1113 2.16016 20.1113 2.625C20.1113 3.08984 19.929 3.49089 19.5645 3.82812C19.1999 4.16536 18.6986 4.33398 18.0605 4.33398H16.9395ZM23.9395 4.33398C23.3014 4.33398 22.8001 4.16536 22.4355 3.82812C22.071 3.49089 21.8887 3.08984 21.8887 2.625C21.8887 2.16016 22.071 1.75911 22.4355 1.42188C22.8001 1.08464 23.3014 0.916016 23.9395 0.916016H25.0605C25.6986 0.916016 26.1999 1.08464 26.5645 1.42188C26.929 1.75911 27.1113 2.16016 27.1113 2.625C27.1113 3.08984 26.929 3.49089 26.5645 3.82812C26.1999 4.16536 25.6986 4.33398 25.0605 4.33398H23.9395ZM32.6895 14.834C32.0514 14.834 31.5501 14.6654 31.1855 14.3281C30.821 13.9909 30.6387 13.5898 30.6387 13.125C30.6387 12.6602 30.821 12.2591 31.1855 11.9219C31.5501 11.5846 32.0514 11.416 32.6895 11.416H37.3105C37.9486 11.416 38.4499 11.5846 38.8145 11.9219C39.179 12.2591 39.3613 12.6602 39.3613 13.125C39.3613 13.5898 39.179 13.9909 38.8145 14.3281C38.4499 14.6654 37.9486 14.834 37.3105 14.834H32.6895ZM30.9395 13.084C30.3014 13.084 29.8001 12.9154 29.4355 12.5781C29.071 12.2409 28.8887 11.8398 28.8887 11.375C28.8887 10.9102 29.071 10.5091 29.4355 10.1719C29.8001 9.83464 30.3014 9.66602 30.9395 9.66602H32.0605C32.6986 9.66602 33.1999 9.83464 33.5645 10.1719C33.929 10.5091 34.1113 10.9102 34.1113 11.375C34.1113 11.8398 33.929 12.2409 33.5645 12.5781C33.1999 12.9154 32.6986 13.084 32.0605 13.084H30.9395ZM37.9395 13.084C37.3014 13.084 36.8001 12.9154 36.4355 12.5781C36.071 12.2409 35.8887 11.8398 35.8887 11.375C35.8887 10.9102 36.071 10.5091 36.4355 10.1719C36.8001 9.83464 37.3014 9.66602 37.9395 9.66602H39.0605C39.6986 9.66602 40.1999 9.83464 40.5645 10.1719C40.929 10.5091 41.1113 10.9102 41.1113 11.375C41.1113 11.8398 40.929 12.2409 40.5645 12.5781C40.1999 12.9154 39.6986 13.084 39.0605 13.084H37.9395ZM30.9395 11.334C30.3014 11.334 29.8001 11.1654 29.4355 10.8281C29.071 10.4909 28.8887 10.0898 28.8887 9.625C28.8887 9.16016 29.071 8.75911 29.4355 8.42188C29.8001 8.08464 30.3014 7.91602 30.9395 7.91602H32.0605C32.6986 7.91602 33.1999 8.08464 33.5645 8.42188C33.929 8.75911 34.1113 9.16016 34.1113 9.625C34.1113 10.0898 33.929 10.4909 33.5645 10.8281C33.1999 11.1654 32.6986 11.334 32.0605 11.334H30.9395ZM30.9395 9.58398C30.3014 9.58398 29.8001 9.41536 29.4355 9.07812C29.071 8.74089 28.8887 8.33984 28.8887 7.875C28.8887 7.41016 29.071 7.00911 29.4355 6.67188C29.8001 6.33464 30.3014 6.16602 30.9395 6.16602H32.0605C32.6986 6.16602 33.1999 6.33464 33.5645 6.67188C33.929 7.00911 34.1113 7.41016 34.1113 7.875C34.1113 8.33984 33.929 8.74089 33.5645 9.07812C33.1999 9.41536 32.6986 9.58398 32.0605 9.58398H30.9395ZM30.9395 7.83398C30.3014 7.83398 29.8001 7.66536 29.4355 7.32812C29.071 6.99089 28.8887 6.58984 28.8887 6.125C28.8887 5.66016 29.071 5.25911 29.4355 4.92188C29.8001 4.58464 30.3014 4.41602 30.9395 4.41602H32.0605C32.6986 4.41602 33.1999 4.58464 33.5645 4.92188C33.929 5.25911 34.1113 5.66016 34.1113 6.125C34.1113 6.58984 33.929 6.99089 33.5645 7.32812C33.1999 7.66536 32.6986 7.83398 32.0605 7.83398H30.9395ZM30.9395 6.08398C30.3014 6.08398 29.8001 5.91536 29.4355 5.57812C29.071 5.24089 28.8887 4.83984 28.8887 4.375C28.8887 3.91016 29.071 3.50911 29.4355 3.17188C29.8001 2.83464 30.3014 2.66602 30.9395 2.66602H32.0605C32.6986 2.66602 33.1999 2.83464 33.5645 3.17188C33.929 3.50911 34.1113 3.91016 34.1113 4.375C34.1113 4.83984 33.929 5.24089 33.5645 5.57812C33.1999 5.91536 32.6986 6.08398 32.0605 6.08398H30.9395ZM37.9395 6.08398C37.3014 6.08398 36.8001 5.91536 36.4355 5.57812C36.071 5.24089 35.8887 4.83984 35.8887 4.375C35.8887 3.91016 36.071 3.50911 36.4355 3.17188C36.8001 2.83464 37.3014 2.66602 37.9395 2.66602H39.0605C39.6986 2.66602 40.1999 2.83464 40.5645 3.17188C40.929 3.50911 41.1113 3.91016 41.1113 4.375C41.1113 4.83984 40.929 5.24089 40.5645 5.57812C40.1999 5.91536 39.6986 6.08398 39.0605 6.08398H37.9395ZM32.6895 4.33398C32.0514 4.33398 31.5501 4.16536 31.1855 3.82812C30.821 3.49089 30.6387 3.08984 30.6387 2.625C30.6387 2.16016 30.821 1.75911 31.1855 1.42188C31.5501 1.08464 32.0514 0.916016 32.6895 0.916016H37.3105C37.9486 0.916016 38.4499 1.08464 38.8145 1.42188C39.179 1.75911 39.3613 2.16016 39.3613 2.625C39.3613 3.08984 39.179 3.49089 38.8145 3.82812C38.4499 4.16536 37.9486 4.33398 37.3105 4.33398H32.6895ZM11.6895 28.834C11.0514 28.834 10.5501 28.6654 10.1855 28.3281C9.82096 27.9909 9.63867 27.5898 9.63867 27.125C9.63867 26.6602 9.82096 26.2591 10.1855 25.9219C10.5501 25.5846 11.0514 25.416 11.6895 25.416H16.3105C16.9486 25.416 17.4499 25.5846 17.8145 25.9219C18.179 26.2591 18.3613 26.6602 18.3613 27.125C18.3613 27.5898 18.179 27.9909 17.8145 28.3281C17.4499 28.6654 16.9486 28.834 16.3105 28.834H11.6895ZM9.93945 27.084C9.30143 27.084 8.80013 26.9154 8.43555 26.5781C8.07096 26.2409 7.88867 25.8398 7.88867 25.375C7.88867 24.9102 8.07096 24.5091 8.43555 24.1719C8.80013 23.8346 9.30143 23.666 9.93945 23.666H11.0605C11.6986 23.666 12.1999 23.8346 12.5645 24.1719C12.929 24.5091 13.1113 24.9102 13.1113 25.375C13.1113 25.8398 12.929 26.2409 12.5645 26.5781C12.1999 26.9154 11.6986 27.084 11.0605 27.084H9.93945ZM16.9395 27.084C16.3014 27.084 15.8001 26.9154 15.4355 26.5781C15.071 26.2409 14.8887 25.8398 14.8887 25.375C14.8887 24.9102 15.071 24.5091 15.4355 24.1719C15.8001 23.8346 16.3014 23.666 16.9395 23.666H18.0605C18.6986 23.666 19.1999 23.8346 19.5645 24.1719C19.929 24.5091 20.1113 24.9102 20.1113 25.375C20.1113 25.8398 19.929 26.2409 19.5645 26.5781C19.1999 26.9154 18.6986 27.084 18.0605 27.084H16.9395ZM9.93945 25.334C9.30143 25.334 8.80013 25.1654 8.43555 24.8281C8.07096 24.4909 7.88867 24.0898 7.88867 23.625C7.88867 23.1602 8.07096 22.7591 8.43555 22.4219C8.80013 22.0846 9.30143 21.916 9.93945 21.916H11.0605C11.6986 21.916 12.1999 22.0846 12.5645 22.4219C12.929 22.7591 13.1113 23.1602 13.1113 23.625C13.1113 24.0898 12.929 24.4909 12.5645 24.8281C12.1999 25.1654 11.6986 25.334 11.0605 25.334H9.93945ZM9.93945 23.584C9.30143 23.584 8.80013 23.4154 8.43555 23.0781C8.07096 22.7409 7.88867 22.3398 7.88867 21.875C7.88867 21.4102 8.07096 21.0091 8.43555 20.6719C8.80013 20.3346 9.30143 20.166 9.93945 20.166H11.0605C11.6986 20.166 12.1999 20.3346 12.5645 20.6719C12.929 21.0091 13.1113 21.4102 13.1113 21.875C13.1113 22.3398 12.929 22.7409 12.5645 23.0781C12.1999 23.4154 11.6986 23.584 11.0605 23.584H9.93945ZM9.93945 21.834C9.30143 21.834 8.80013 21.6654 8.43555 21.3281C8.07096 20.9909 7.88867 20.5898 7.88867 20.125C7.88867 19.6602 8.07096 19.2591 8.43555 18.9219C8.80013 18.5846 9.30143 18.416 9.93945 18.416H11.0605C11.6986 18.416 12.1999 18.5846 12.5645 18.9219C12.929 19.2591 13.1113 19.6602 13.1113 20.125C13.1113 20.5898 12.929 20.9909 12.5645 21.3281C12.1999 21.6654 11.6986 21.834 11.0605 21.834H9.93945ZM9.93945 20.084C9.30143 20.084 8.80013 19.9154 8.43555 19.5781C8.07096 19.2409 7.88867 18.8398 7.88867 18.375C7.88867 17.9102 8.07096 17.5091 8.43555 17.1719C8.80013 16.8346 9.30143 16.666 9.93945 16.666H11.0605C11.6986 16.666 12.1999 16.8346 12.5645 17.1719C12.929 17.5091 13.1113 17.9102 13.1113 18.375C13.1113 18.8398 12.929 19.2409 12.5645 19.5781C12.1999 19.9154 11.6986 20.084 11.0605 20.084H9.93945ZM16.9395 20.084C16.3014 20.084 15.8001 19.9154 15.4355 19.5781C15.071 19.2409 14.8887 18.8398 14.8887 18.375C14.8887 17.9102 15.071 17.5091 15.4355 17.1719C15.8001 16.8346 16.3014 16.666 16.9395 16.666H18.0605C18.6986 16.666 19.1999 16.8346 19.5645 17.1719C19.929 17.5091 20.1113 17.9102 20.1113 18.375C20.1113 18.8398 19.929 19.2409 19.5645 19.5781C19.1999 19.9154 18.6986 20.084 18.0605 20.084H16.9395ZM11.6895 18.334C11.0514 18.334 10.5501 18.1654 10.1855 17.8281C9.82096 17.4909 9.63867 17.0898 9.63867 16.625C9.63867 16.1602 9.82096 15.7591 10.1855 15.4219C10.5501 15.0846 11.0514 14.916 11.6895 14.916H16.3105C16.9486 14.916 17.4499 15.0846 17.8145 15.4219C18.179 15.7591 18.3613 16.1602 18.3613 16.625C18.3613 17.0898 18.179 17.4909 17.8145 17.8281C17.4499 18.1654 16.9486 18.334 16.3105 18.334H11.6895ZM23.9395 28.834C23.3014 28.834 22.8001 28.6654 22.4355 28.3281C22.071 27.9909 21.8887 27.5898 21.8887 27.125C21.8887 26.6602 22.071 26.2591 22.4355 25.9219C22.8001 25.5846 23.3014 25.416 23.9395 25.416H25.0605C25.6986 25.416 26.1999 25.5846 26.5645 25.9219C26.929 26.2591 27.1113 26.6602 27.1113 27.125C27.1113 27.5898 26.929 27.9909 26.5645 28.3281C26.1999 28.6654 25.6986 28.834 25.0605 28.834H23.9395ZM30.9395 28.834C30.3014 28.834 29.8001 28.6654 29.4355 28.3281C29.071 27.9909 28.8887 27.5898 28.8887 27.125C28.8887 26.6602 29.071 26.2591 29.4355 25.9219C29.8001 25.5846 30.3014 25.416 30.9395 25.416H32.0605C32.6986 25.416 33.1999 25.5846 33.5645 25.9219C33.929 26.2591 34.1113 26.6602 34.1113 27.125C34.1113 27.5898 33.929 27.9909 33.5645 28.3281C33.1999 28.6654 32.6986 28.834 32.0605 28.834H30.9395ZM23.9395 27.084C23.3014 27.084 22.8001 26.9154 22.4355 26.5781C22.071 26.2409 21.8887 25.8398 21.8887 25.375C21.8887 24.9102 22.071 24.5091 22.4355 24.1719C22.8001 23.8346 23.3014 23.666 23.9395 23.666H25.0605C25.6986 23.666 26.1999 23.8346 26.5645 24.1719C26.929 24.5091 27.1113 24.9102 27.1113 25.375C27.1113 25.8398 26.929 26.2409 26.5645 26.5781C26.1999 26.9154 25.6986 27.084 25.0605 27.084H23.9395ZM29.1895 27.084C28.5514 27.084 28.0501 26.9154 27.6855 26.5781C27.321 26.2409 27.1387 25.8398 27.1387 25.375C27.1387 24.9102 27.321 24.5091 27.6855 24.1719C28.0501 23.8346 28.5514 23.666 29.1895 23.666H30.3105C30.9486 23.666 31.4499 23.8346 31.8145 24.1719C32.179 24.5091 32.3613 24.9102 32.3613 25.375C32.3613 25.8398 32.179 26.2409 31.8145 26.5781C31.4499 26.9154 30.9486 27.084 30.3105 27.084H29.1895ZM23.9395 25.334C23.3014 25.334 22.8001 25.1654 22.4355 24.8281C22.071 24.4909 21.8887 24.0898 21.8887 23.625C21.8887 23.1602 22.071 22.7591 22.4355 22.4219C22.8001 22.0846 23.3014 21.916 23.9395 21.916H28.5605C29.1986 21.916 29.6999 22.0846 30.0645 22.4219C30.429 22.7591 30.6113 23.1602 30.6113 23.625C30.6113 24.0898 30.429 24.4909 30.0645 24.8281C29.6999 25.1654 29.1986 25.334 28.5605 25.334H23.9395ZM23.9395 23.584C23.3014 23.584 22.8001 23.4154 22.4355 23.0781C22.071 22.7409 21.8887 22.3398 21.8887 21.875C21.8887 21.4102 22.071 21.0091 22.4355 20.6719C22.8001 20.3346 23.3014 20.166 23.9395 20.166H30.3105C30.9486 20.166 31.4499 20.3346 31.8145 20.6719C32.179 21.0091 32.3613 21.4102 32.3613 21.875C32.3613 22.3398 32.179 22.7409 31.8145 23.0781C31.4499 23.4154 30.9486 23.584 30.3105 23.584H23.9395ZM23.9395 21.834C23.3014 21.834 22.8001 21.6654 22.4355 21.3281C22.071 20.9909 21.8887 20.5898 21.8887 20.125C21.8887 19.6602 22.071 19.2591 22.4355 18.9219C22.8001 18.5846 23.3014 18.416 23.9395 18.416H25.0605C25.6986 18.416 26.1999 18.5846 26.5645 18.9219C26.929 19.2591 27.1113 19.6602 27.1113 20.125C27.1113 20.5898 26.929 20.9909 26.5645 21.3281C26.1999 21.6654 25.6986 21.834 25.0605 21.834H23.9395ZM30.9395 21.834C30.3014 21.834 29.8001 21.6654 29.4355 21.3281C29.071 20.9909 28.8887 20.5898 28.8887 20.125C28.8887 19.6602 29.071 19.2591 29.4355 18.9219C29.8001 18.5846 30.3014 18.416 30.9395 18.416H32.0605C32.6986 18.416 33.1999 18.5846 33.5645 18.9219C33.929 19.2591 34.1113 19.6602 34.1113 20.125C34.1113 20.5898 33.929 20.9909 33.5645 21.3281C33.1999 21.6654 32.6986 21.834 32.0605 21.834H30.9395ZM23.9395 20.084C23.3014 20.084 22.8001 19.9154 22.4355 19.5781C22.071 19.2409 21.8887 18.8398 21.8887 18.375C21.8887 17.9102 22.071 17.5091 22.4355 17.1719C22.8001 16.8346 23.3014 16.666 23.9395 16.666H25.0605C25.6986 16.666 26.1999 16.8346 26.5645 17.1719C26.929 17.5091 27.1113 17.9102 27.1113 18.375C27.1113 18.8398 26.929 19.2409 26.5645 19.5781C26.1999 19.9154 25.6986 20.084 25.0605 20.084H23.9395ZM30.9395 20.084C30.3014 20.084 29.8001 19.9154 29.4355 19.5781C29.071 19.2409 28.8887 18.8398 28.8887 18.375C28.8887 17.9102 29.071 17.5091 29.4355 17.1719C29.8001 16.8346 30.3014 16.666 30.9395 16.666H32.0605C32.6986 16.666 33.1999 16.8346 33.5645 17.1719C33.929 17.5091 34.1113 17.9102 34.1113 18.375C34.1113 18.8398 33.929 19.2409 33.5645 19.5781C33.1999 19.9154 32.6986 20.084 32.0605 20.084H30.9395ZM23.9395 18.334C23.3014 18.334 22.8001 18.1654 22.4355 17.8281C22.071 17.4909 21.8887 17.0898 21.8887 16.625C21.8887 16.1602 22.071 15.7591 22.4355 15.4219C22.8001 15.0846 23.3014 14.916 23.9395 14.916H30.3105C30.9486 14.916 31.4499 15.0846 31.8145 15.4219C32.179 15.7591 32.3613 16.1602 32.3613 16.625C32.3613 17.0898 32.179 17.4909 31.8145 17.8281C31.4499 18.1654 30.9486 18.334 30.3105 18.334H23.9395ZM51.9395 28.834C51.3014 28.834 50.8001 28.6654 50.4355 28.3281C50.071 27.9909 49.8887 27.5898 49.8887 27.125C49.8887 26.6602 50.071 26.2591 50.4355 25.9219C50.8001 25.5846 51.3014 25.416 51.9395 25.416H53.0605C53.6986 25.416 54.1999 25.5846 54.5645 25.9219C54.929 26.2591 55.1113 26.6602 55.1113 27.125C55.1113 27.5898 54.929 27.9909 54.5645 28.3281C54.1999 28.6654 53.6986 28.834 53.0605 28.834H51.9395ZM51.9395 27.084C51.3014 27.084 50.8001 26.9154 50.4355 26.5781C50.071 26.2409 49.8887 25.8398 49.8887 25.375C49.8887 24.9102 50.071 24.5091 50.4355 24.1719C50.8001 23.8346 51.3014 23.666 51.9395 23.666H53.0605C53.6986 23.666 54.1999 23.8346 54.5645 24.1719C54.929 24.5091 55.1113 24.9102 55.1113 25.375C55.1113 25.8398 54.929 26.2409 54.5645 26.5781C54.1999 26.9154 53.6986 27.084 53.0605 27.084H51.9395ZM51.9395 25.334C51.3014 25.334 50.8001 25.1654 50.4355 24.8281C50.071 24.4909 49.8887 24.0898 49.8887 23.625C49.8887 23.1602 50.071 22.7591 50.4355 22.4219C50.8001 22.0846 51.3014 21.916 51.9395 21.916H53.0605C53.6986 21.916 54.1999 22.0846 54.5645 22.4219C54.929 22.7591 55.1113 23.1602 55.1113 23.625C55.1113 24.0898 54.929 24.4909 54.5645 24.8281C54.1999 25.1654 53.6986 25.334 53.0605 25.334H51.9395ZM51.9395 23.584C51.3014 23.584 50.8001 23.4154 50.4355 23.0781C50.071 22.7409 49.8887 22.3398 49.8887 21.875C49.8887 21.4102 50.071 21.0091 50.4355 20.6719C50.8001 20.3346 51.3014 20.166 51.9395 20.166H58.3105C58.9486 20.166 59.4499 20.3346 59.8145 20.6719C60.179 21.0091 60.3613 21.4102 60.3613 21.875C60.3613 22.3398 60.179 22.7409 59.8145 23.0781C59.4499 23.4154 58.9486 23.584 58.3105 23.584H51.9395ZM51.9395 21.834C51.3014 21.834 50.8001 21.6654 50.4355 21.3281C50.071 20.9909 49.8887 20.5898 49.8887 20.125C49.8887 19.6602 50.071 19.2591 50.4355 18.9219C50.8001 18.5846 51.3014 18.416 51.9395 18.416H53.0605C53.6986 18.416 54.1999 18.5846 54.5645 18.9219C54.929 19.2591 55.1113 19.6602 55.1113 20.125C55.1113 20.5898 54.929 20.9909 54.5645 21.3281C54.1999 21.6654 53.6986 21.834 53.0605 21.834H51.9395ZM58.9395 21.834C58.3014 21.834 57.8001 21.6654 57.4355 21.3281C57.071 20.9909 56.8887 20.5898 56.8887 20.125C56.8887 19.6602 57.071 19.2591 57.4355 18.9219C57.8001 18.5846 58.3014 18.416 58.9395 18.416H60.0605C60.6986 18.416 61.1999 18.5846 61.5645 18.9219C61.929 19.2591 62.1113 19.6602 62.1113 20.125C62.1113 20.5898 61.929 20.9909 61.5645 21.3281C61.1999 21.6654 60.6986 21.834 60.0605 21.834H58.9395ZM51.9395 20.084C51.3014 20.084 50.8001 19.9154 50.4355 19.5781C50.071 19.2409 49.8887 18.8398 49.8887 18.375C49.8887 17.9102 50.071 17.5091 50.4355 17.1719C50.8001 16.8346 51.3014 16.666 51.9395 16.666H53.0605C53.6986 16.666 54.1999 16.8346 54.5645 17.1719C54.929 17.5091 55.1113 17.9102 55.1113 18.375C55.1113 18.8398 54.929 19.2409 54.5645 19.5781C54.1999 19.9154 53.6986 20.084 53.0605 20.084H51.9395ZM58.9395 20.084C58.3014 20.084 57.8001 19.9154 57.4355 19.5781C57.071 19.2409 56.8887 18.8398 56.8887 18.375C56.8887 17.9102 57.071 17.5091 57.4355 17.1719C57.8001 16.8346 58.3014 16.666 58.9395 16.666H60.0605C60.6986 16.666 61.1999 16.8346 61.5645 17.1719C61.929 17.5091 62.1113 17.9102 62.1113 18.375C62.1113 18.8398 61.929 19.2409 61.5645 19.5781C61.1999 19.9154 60.6986 20.084 60.0605 20.084H58.9395ZM51.9395 18.334C51.3014 18.334 50.8001 18.1654 50.4355 17.8281C50.071 17.4909 49.8887 17.0898 49.8887 16.625C49.8887 16.1602 50.071 15.7591 50.4355 15.4219C50.8001 15.0846 51.3014 14.916 51.9395 14.916H58.3105C58.9486 14.916 59.4499 15.0846 59.8145 15.4219C60.179 15.7591 60.3613 16.1602 60.3613 16.625C60.3613 17.0898 60.179 17.4909 59.8145 17.8281C59.4499 18.1654 58.9486 18.334 58.3105 18.334H51.9395Z" fill="white"/>
<path d="M44.9395 14.834C44.3014 14.834 43.8001 14.6654 43.4355 14.3281C43.071 13.9909 42.8887 13.5898 42.8887 13.125C42.8887 12.6602 43.071 12.2591 43.4355 11.9219C43.8001 11.5846 44.3014 11.416 44.9395 11.416H46.0605C46.6986 11.416 47.1999 11.5846 47.5645 11.9219C47.929 12.2591 48.1113 12.6602 48.1113 13.125C48.1113 13.5898 47.929 13.9909 47.5645 14.3281C47.1999 14.6654 46.6986 14.834 46.0605 14.834H44.9395ZM51.9395 14.834C51.3014 14.834 50.8001 14.6654 50.4355 14.3281C50.071 13.9909 49.8887 13.5898 49.8887 13.125C49.8887 12.6602 50.071 12.2591 50.4355 11.9219C50.8001 11.5846 51.3014 11.416 51.9395 11.416H53.0605C53.6986 11.416 54.1999 11.5846 54.5645 11.9219C54.929 12.2591 55.1113 12.6602 55.1113 13.125C55.1113 13.5898 54.929 13.9909 54.5645 14.3281C54.1999 14.6654 53.6986 14.834 53.0605 14.834H51.9395ZM44.9395 13.084C44.3014 13.084 43.8001 12.9154 43.4355 12.5781C43.071 12.2409 42.8887 11.8398 42.8887 11.375C42.8887 10.9102 43.071 10.5091 43.4355 10.1719C43.8001 9.83464 44.3014 9.66602 44.9395 9.66602H46.0605C46.6986 9.66602 47.1999 9.83464 47.5645 10.1719C47.929 10.5091 48.1113 10.9102 48.1113 11.375C48.1113 11.8398 47.929 12.2409 47.5645 12.5781C47.1999 12.9154 46.6986 13.084 46.0605 13.084H44.9395ZM50.1895 13.084C49.5514 13.084 49.0501 12.9154 48.6855 12.5781C48.321 12.2409 48.1387 11.8398 48.1387 11.375C48.1387 10.9102 48.321 10.5091 48.6855 10.1719C49.0501 9.83464 49.5514 9.66602 50.1895 9.66602H51.3105C51.9486 9.66602 52.4499 9.83464 52.8145 10.1719C53.179 10.5091 53.3613 10.9102 53.3613 11.375C53.3613 11.8398 53.179 12.2409 52.8145 12.5781C52.4499 12.9154 51.9486 13.084 51.3105 13.084H50.1895ZM44.9395 11.334C44.3014 11.334 43.8001 11.1654 43.4355 10.8281C43.071 10.4909 42.8887 10.0898 42.8887 9.625C42.8887 9.16016 43.071 8.75911 43.4355 8.42188C43.8001 8.08464 44.3014 7.91602 44.9395 7.91602H49.5605C50.1986 7.91602 50.6999 8.08464 51.0645 8.42188C51.429 8.75911 51.6113 9.16016 51.6113 9.625C51.6113 10.0898 51.429 10.4909 51.0645 10.8281C50.6999 11.1654 50.1986 11.334 49.5605 11.334H44.9395ZM44.9395 9.58398C44.3014 9.58398 43.8001 9.41536 43.4355 9.07812C43.071 8.74089 42.8887 8.33984 42.8887 7.875C42.8887 7.41016 43.071 7.00911 43.4355 6.67188C43.8001 6.33464 44.3014 6.16602 44.9395 6.16602H47.8105C48.4486 6.16602 48.9499 6.33464 49.3145 6.67188C49.679 7.00911 49.8613 7.41016 49.8613 7.875C49.8613 8.33984 49.679 8.74089 49.3145 9.07812C48.9499 9.41536 48.4486 9.58398 47.8105 9.58398H44.9395ZM44.9395 7.83398C44.3014 7.83398 43.8001 7.66536 43.4355 7.32812C43.071 6.99089 42.8887 6.58984 42.8887 6.125C42.8887 5.66016 43.071 5.25911 43.4355 4.92188C43.8001 4.58464 44.3014 4.41602 44.9395 4.41602H49.5605C50.1986 4.41602 50.6999 4.58464 51.0645 4.92188C51.429 5.25911 51.6113 5.66016 51.6113 6.125C51.6113 6.58984 51.429 6.99089 51.0645 7.32812C50.6999 7.66536 50.1986 7.83398 49.5605 7.83398H44.9395ZM44.9395 6.08398C44.3014 6.08398 43.8001 5.91536 43.4355 5.57812C43.071 5.24089 42.8887 4.83984 42.8887 4.375C42.8887 3.91016 43.071 3.50911 43.4355 3.17188C43.8001 2.83464 44.3014 2.66602 44.9395 2.66602H46.0605C46.6986 2.66602 47.1999 2.83464 47.5645 3.17188C47.929 3.50911 48.1113 3.91016 48.1113 4.375C48.1113 4.83984 47.929 5.24089 47.5645 5.57812C47.1999 5.91536 46.6986 6.08398 46.0605 6.08398H44.9395ZM50.1895 6.08398C49.5514 6.08398 49.0501 5.91536 48.6855 5.57812C48.321 5.24089 48.1387 4.83984 48.1387 4.375C48.1387 3.91016 48.321 3.50911 48.6855 3.17188C49.0501 2.83464 49.5514 2.66602 50.1895 2.66602H51.3105C51.9486 2.66602 52.4499 2.83464 52.8145 3.17188C53.179 3.50911 53.3613 3.91016 53.3613 4.375C53.3613 4.83984 53.179 5.24089 52.8145 5.57812C52.4499 5.91536 51.9486 6.08398 51.3105 6.08398H50.1895ZM44.9395 4.33398C44.3014 4.33398 43.8001 4.16536 43.4355 3.82812C43.071 3.49089 42.8887 3.08984 42.8887 2.625C42.8887 2.16016 43.071 1.75911 43.4355 1.42188C43.8001 1.08464 44.3014 0.916016 44.9395 0.916016H46.0605C46.6986 0.916016 47.1999 1.08464 47.5645 1.42188C47.929 1.75911 48.1113 2.16016 48.1113 2.625C48.1113 3.08984 47.929 3.49089 47.5645 3.82812C47.1999 4.16536 46.6986 4.33398 46.0605 4.33398H44.9395ZM51.9395 4.33398C51.3014 4.33398 50.8001 4.16536 50.4355 3.82812C50.071 3.49089 49.8887 3.08984 49.8887 2.625C49.8887 2.16016 50.071 1.75911 50.4355 1.42188C50.8001 1.08464 51.3014 0.916016 51.9395 0.916016H53.0605C53.6986 0.916016 54.1999 1.08464 54.5645 1.42188C54.929 1.75911 55.1113 2.16016 55.1113 2.625C55.1113 3.08984 54.929 3.49089 54.5645 3.82812C54.1999 4.16536 53.6986 4.33398 53.0605 4.33398H51.9395ZM39.6895 28.834C39.0514 28.834 38.5501 28.6654 38.1855 28.3281C37.821 27.9909 37.6387 27.5898 37.6387 27.125C37.6387 26.6602 37.821 26.2591 38.1855 25.9219C38.5501 25.5846 39.0514 25.416 39.6895 25.416H44.3105C44.9486 25.416 45.4499 25.5846 45.8145 25.9219C46.179 26.2591 46.3613 26.6602 46.3613 27.125C46.3613 27.5898 46.179 27.9909 45.8145 28.3281C45.4499 28.6654 44.9486 28.834 44.3105 28.834H39.6895ZM37.9395 27.084C37.3014 27.084 36.8001 26.9154 36.4355 26.5781C36.071 26.2409 35.8887 25.8398 35.8887 25.375C35.8887 24.9102 36.071 24.5091 36.4355 24.1719C36.8001 23.8346 37.3014 23.666 37.9395 23.666H39.0605C39.6986 23.666 40.1999 23.8346 40.5645 24.1719C40.929 24.5091 41.1113 24.9102 41.1113 25.375C41.1113 25.8398 40.929 26.2409 40.5645 26.5781C40.1999 26.9154 39.6986 27.084 39.0605 27.084H37.9395ZM44.9395 27.084C44.3014 27.084 43.8001 26.9154 43.4355 26.5781C43.071 26.2409 42.8887 25.8398 42.8887 25.375C42.8887 24.9102 43.071 24.5091 43.4355 24.1719C43.8001 23.8346 44.3014 23.666 44.9395 23.666H46.0605C46.6986 23.666 47.1999 23.8346 47.5645 24.1719C47.929 24.5091 48.1113 24.9102 48.1113 25.375C48.1113 25.8398 47.929 26.2409 47.5645 26.5781C47.1999 26.9154 46.6986 27.084 46.0605 27.084H44.9395ZM37.9395 25.334C37.3014 25.334 36.8001 25.1654 36.4355 24.8281C36.071 24.4909 35.8887 24.0898 35.8887 23.625C35.8887 23.1602 36.071 22.7591 36.4355 22.4219C36.8001 22.0846 37.3014 21.916 37.9395 21.916H39.0605C39.6986 21.916 40.1999 22.0846 40.5645 22.4219C40.929 22.7591 41.1113 23.1602 41.1113 23.625C41.1113 24.0898 40.929 24.4909 40.5645 24.8281C40.1999 25.1654 39.6986 25.334 39.0605 25.334H37.9395ZM44.9395 25.334C44.3014 25.334 43.8001 25.1654 43.4355 24.8281C43.071 24.4909 42.8887 24.0898 42.8887 23.625C42.8887 23.1602 43.071 22.7591 43.4355 22.4219C43.8001 22.0846 44.3014 21.916 44.9395 21.916H46.0605C46.6986 21.916 47.1999 22.0846 47.5645 22.4219C47.929 22.7591 48.1113 23.1602 48.1113 23.625C48.1113 24.0898 47.929 24.4909 47.5645 24.8281C47.1999 25.1654 46.6986 25.334 46.0605 25.334H44.9395ZM37.9395 23.584C37.3014 23.584 36.8001 23.4154 36.4355 23.0781C36.071 22.7409 35.8887 22.3398 35.8887 21.875C35.8887 21.4102 36.071 21.0091 36.4355 20.6719C36.8001 20.3346 37.3014 20.166 37.9395 20.166H39.0605C39.6986 20.166 40.1999 20.3346 40.5645 20.6719C40.929 21.0091 41.1113 21.4102 41.1113 21.875C41.1113 22.3398 40.929 22.7409 40.5645 23.0781C40.1999 23.4154 39.6986 23.584 39.0605 23.584H37.9395ZM44.9395 23.584C44.3014 23.584 43.8001 23.4154 43.4355 23.0781C43.071 22.7409 42.8887 22.3398 42.8887 21.875C42.8887 21.4102 43.071 21.0091 43.4355 20.6719C43.8001 20.3346 44.3014 20.166 44.9395 20.166H46.0605C46.6986 20.166 47.1999 20.3346 47.5645 20.6719C47.929 21.0091 48.1113 21.4102 48.1113 21.875C48.1113 22.3398 47.929 22.7409 47.5645 23.0781C47.1999 23.4154 46.6986 23.584 46.0605 23.584H44.9395ZM37.9395 21.834C37.3014 21.834 36.8001 21.6654 36.4355 21.3281C36.071 20.9909 35.8887 20.5898 35.8887 20.125C35.8887 19.6602 36.071 19.2591 36.4355 18.9219C36.8001 18.5846 37.3014 18.416 37.9395 18.416H39.0605C39.6986 18.416 40.1999 18.5846 40.5645 18.9219C40.929 19.2591 41.1113 19.6602 41.1113 20.125C41.1113 20.5898 40.929 20.9909 40.5645 21.3281C40.1999 21.6654 39.6986 21.834 39.0605 21.834H37.9395ZM44.9395 21.834C44.3014 21.834 43.8001 21.6654 43.4355 21.3281C43.071 20.9909 42.8887 20.5898 42.8887 20.125C42.8887 19.6602 43.071 19.2591 43.4355 18.9219C43.8001 18.5846 44.3014 18.416 44.9395 18.416H46.0605C46.6986 18.416 47.1999 18.5846 47.5645 18.9219C47.929 19.2591 48.1113 19.6602 48.1113 20.125C48.1113 20.5898 47.929 20.9909 47.5645 21.3281C47.1999 21.6654 46.6986 21.834 46.0605 21.834H44.9395ZM37.9395 20.084C37.3014 20.084 36.8001 19.9154 36.4355 19.5781C36.071 19.2409 35.8887 18.8398 35.8887 18.375C35.8887 17.9102 36.071 17.5091 36.4355 17.1719C36.8001 16.8346 37.3014 16.666 37.9395 16.666H39.0605C39.6986 16.666 40.1999 16.8346 40.5645 17.1719C40.929 17.5091 41.1113 17.9102 41.1113 18.375C41.1113 18.8398 40.929 19.2409 40.5645 19.5781C40.1999 19.9154 39.6986 20.084 39.0605 20.084H37.9395ZM44.9395 20.084C44.3014 20.084 43.8001 19.9154 43.4355 19.5781C43.071 19.2409 42.8887 18.8398 42.8887 18.375C42.8887 17.9102 43.071 17.5091 43.4355 17.1719C43.8001 16.8346 44.3014 16.666 44.9395 16.666H46.0605C46.6986 16.666 47.1999 16.8346 47.5645 17.1719C47.929 17.5091 48.1113 17.9102 48.1113 18.375C48.1113 18.8398 47.929 19.2409 47.5645 19.5781C47.1999 19.9154 46.6986 20.084 46.0605 20.084H44.9395ZM39.6895 18.334C39.0514 18.334 38.5501 18.1654 38.1855 17.8281C37.821 17.4909 37.6387 17.0898 37.6387 16.625C37.6387 16.1602 37.821 15.7591 38.1855 15.4219C38.5501 15.0846 39.0514 14.916 39.6895 14.916H44.3105C44.9486 14.916 45.4499 15.0846 45.8145 15.4219C46.179 15.7591 46.3613 16.1602 46.3613 16.625C46.3613 17.0898 46.179 17.4909 45.8145 17.8281C45.4499 18.1654 44.9486 18.334 44.3105 18.334H39.6895Z" fill="white"/>
<path d="M44.9395 14.834C44.3014 14.834 43.8001 14.6654 43.4355 14.3281C43.071 13.9909 42.8887 13.5898 42.8887 13.125C42.8887 12.6602 43.071 12.2591 43.4355 11.9219C43.8001 11.5846 44.3014 11.416 44.9395 11.416H46.0605C46.6986 11.416 47.1999 11.5846 47.5645 11.9219C47.929 12.2591 48.1113 12.6602 48.1113 13.125C48.1113 13.5898 47.929 13.9909 47.5645 14.3281C47.1999 14.6654 46.6986 14.834 46.0605 14.834H44.9395ZM51.9395 14.834C51.3014 14.834 50.8001 14.6654 50.4355 14.3281C50.071 13.9909 49.8887 13.5898 49.8887 13.125C49.8887 12.6602 50.071 12.2591 50.4355 11.9219C50.8001 11.5846 51.3014 11.416 51.9395 11.416H53.0605C53.6986 11.416 54.1999 11.5846 54.5645 11.9219C54.929 12.2591 55.1113 12.6602 55.1113 13.125C55.1113 13.5898 54.929 13.9909 54.5645 14.3281C54.1999 14.6654 53.6986 14.834 53.0605 14.834H51.9395ZM44.9395 13.084C44.3014 13.084 43.8001 12.9154 43.4355 12.5781C43.071 12.2409 42.8887 11.8398 42.8887 11.375C42.8887 10.9102 43.071 10.5091 43.4355 10.1719C43.8001 9.83464 44.3014 9.66602 44.9395 9.66602H46.0605C46.6986 9.66602 47.1999 9.83464 47.5645 10.1719C47.929 10.5091 48.1113 10.9102 48.1113 11.375C48.1113 11.8398 47.929 12.2409 47.5645 12.5781C47.1999 12.9154 46.6986 13.084 46.0605 13.084H44.9395ZM50.1895 13.084C49.5514 13.084 49.0501 12.9154 48.6855 12.5781C48.321 12.2409 48.1387 11.8398 48.1387 11.375C48.1387 10.9102 48.321 10.5091 48.6855 10.1719C49.0501 9.83464 49.5514 9.66602 50.1895 9.66602H51.3105C51.9486 9.66602 52.4499 9.83464 52.8145 10.1719C53.179 10.5091 53.3613 10.9102 53.3613 11.375C53.3613 11.8398 53.179 12.2409 52.8145 12.5781C52.4499 12.9154 51.9486 13.084 51.3105 13.084H50.1895ZM44.9395 11.334C44.3014 11.334 43.8001 11.1654 43.4355 10.8281C43.071 10.4909 42.8887 10.0898 42.8887 9.625C42.8887 9.16016 43.071 8.75911 43.4355 8.42188C43.8001 8.08464 44.3014 7.91602 44.9395 7.91602H49.5605C50.1986 7.91602 50.6999 8.08464 51.0645 8.42188C51.429 8.75911 51.6113 9.16016 51.6113 9.625C51.6113 10.0898 51.429 10.4909 51.0645 10.8281C50.6999 11.1654 50.1986 11.334 49.5605 11.334H44.9395ZM44.9395 9.58398C44.3014 9.58398 43.8001 9.41536 43.4355 9.07812C43.071 8.74089 42.8887 8.33984 42.8887 7.875C42.8887 7.41016 43.071 7.00911 43.4355 6.67188C43.8001 6.33464 44.3014 6.16602 44.9395 6.16602H47.8105C48.4486 6.16602 48.9499 6.33464 49.3145 6.67188C49.679 7.00911 49.8613 7.41016 49.8613 7.875C49.8613 8.33984 49.679 8.74089 49.3145 9.07812C48.9499 9.41536 48.4486 9.58398 47.8105 9.58398H44.9395ZM44.9395 7.83398C44.3014 7.83398 43.8001 7.66536 43.4355 7.32812C43.071 6.99089 42.8887 6.58984 42.8887 6.125C42.8887 5.66016 43.071 5.25911 43.4355 4.92188C43.8001 4.58464 44.3014 4.41602 44.9395 4.41602H49.5605C50.1986 4.41602 50.6999 4.58464 51.0645 4.92188C51.429 5.25911 51.6113 5.66016 51.6113 6.125C51.6113 6.58984 51.429 6.99089 51.0645 7.32812C50.6999 7.66536 50.1986 7.83398 49.5605 7.83398H44.9395ZM44.9395 6.08398C44.3014 6.08398 43.8001 5.91536 43.4355 5.57812C43.071 5.24089 42.8887 4.83984 42.8887 4.375C42.8887 3.91016 43.071 3.50911 43.4355 3.17188C43.8001 2.83464 44.3014 2.66602 44.9395 2.66602H46.0605C46.6986 2.66602 47.1999 2.83464 47.5645 3.17188C47.929 3.50911 48.1113 3.91016 48.1113 4.375C48.1113 4.83984 47.929 5.24089 47.5645 5.57812C47.1999 5.91536 46.6986 6.08398 46.0605 6.08398H44.9395ZM50.1895 6.08398C49.5514 6.08398 49.0501 5.91536 48.6855 5.57812C48.321 5.24089 48.1387 4.83984 48.1387 4.375C48.1387 3.91016 48.321 3.50911 48.6855 3.17188C49.0501 2.83464 49.5514 2.66602 50.1895 2.66602H51.3105C51.9486 2.66602 52.4499 2.83464 52.8145 3.17188C53.179 3.50911 53.3613 3.91016 53.3613 4.375C53.3613 4.83984 53.179 5.24089 52.8145 5.57812C52.4499 5.91536 51.9486 6.08398 51.3105 6.08398H50.1895ZM44.9395 4.33398C44.3014 4.33398 43.8001 4.16536 43.4355 3.82812C43.071 3.49089 42.8887 3.08984 42.8887 2.625C42.8887 2.16016 43.071 1.75911 43.4355 1.42188C43.8001 1.08464 44.3014 0.916016 44.9395 0.916016H46.0605C46.6986 0.916016 47.1999 1.08464 47.5645 1.42188C47.929 1.75911 48.1113 2.16016 48.1113 2.625C48.1113 3.08984 47.929 3.49089 47.5645 3.82812C47.1999 4.16536 46.6986 4.33398 46.0605 4.33398H44.9395ZM51.9395 4.33398C51.3014 4.33398 50.8001 4.16536 50.4355 3.82812C50.071 3.49089 49.8887 3.08984 49.8887 2.625C49.8887 2.16016 50.071 1.75911 50.4355 1.42188C50.8001 1.08464 51.3014 0.916016 51.9395 0.916016H53.0605C53.6986 0.916016 54.1999 1.08464 54.5645 1.42188C54.929 1.75911 55.1113 2.16016 55.1113 2.625C55.1113 3.08984 54.929 3.49089 54.5645 3.82812C54.1999 4.16536 53.6986 4.33398 53.0605 4.33398H51.9395ZM39.6895 28.834C39.0514 28.834 38.5501 28.6654 38.1855 28.3281C37.821 27.9909 37.6387 27.5898 37.6387 27.125C37.6387 26.6602 37.821 26.2591 38.1855 25.9219C38.5501 25.5846 39.0514 25.416 39.6895 25.416H44.3105C44.9486 25.416 45.4499 25.5846 45.8145 25.9219C46.179 26.2591 46.3613 26.6602 46.3613 27.125C46.3613 27.5898 46.179 27.9909 45.8145 28.3281C45.4499 28.6654 44.9486 28.834 44.3105 28.834H39.6895ZM37.9395 27.084C37.3014 27.084 36.8001 26.9154 36.4355 26.5781C36.071 26.2409 35.8887 25.8398 35.8887 25.375C35.8887 24.9102 36.071 24.5091 36.4355 24.1719C36.8001 23.8346 37.3014 23.666 37.9395 23.666H39.0605C39.6986 23.666 40.1999 23.8346 40.5645 24.1719C40.929 24.5091 41.1113 24.9102 41.1113 25.375C41.1113 25.8398 40.929 26.2409 40.5645 26.5781C40.1999 26.9154 39.6986 27.084 39.0605 27.084H37.9395ZM44.9395 27.084C44.3014 27.084 43.8001 26.9154 43.4355 26.5781C43.071 26.2409 42.8887 25.8398 42.8887 25.375C42.8887 24.9102 43.071 24.5091 43.4355 24.1719C43.8001 23.8346 44.3014 23.666 44.9395 23.666H46.0605C46.6986 23.666 47.1999 23.8346 47.5645 24.1719C47.929 24.5091 48.1113 24.9102 48.1113 25.375C48.1113 25.8398 47.929 26.2409 47.5645 26.5781C47.1999 26.9154 46.6986 27.084 46.0605 27.084H44.9395ZM37.9395 25.334C37.3014 25.334 36.8001 25.1654 36.4355 24.8281C36.071 24.4909 35.8887 24.0898 35.8887 23.625C35.8887 23.1602 36.071 22.7591 36.4355 22.4219C36.8001 22.0846 37.3014 21.916 37.9395 21.916H39.0605C39.6986 21.916 40.1999 22.0846 40.5645 22.4219C40.929 22.7591 41.1113 23.1602 41.1113 23.625C41.1113 24.0898 40.929 24.4909 40.5645 24.8281C40.1999 25.1654 39.6986 25.334 39.0605 25.334H37.9395ZM44.9395 25.334C44.3014 25.334 43.8001 25.1654 43.4355 24.8281C43.071 24.4909 42.8887 24.0898 42.8887 23.625C42.8887 23.1602 43.071 22.7591 43.4355 22.4219C43.8001 22.0846 44.3014 21.916 44.9395 21.916H46.0605C46.6986 21.916 47.1999 22.0846 47.5645 22.4219C47.929 22.7591 48.1113 23.1602 48.1113 23.625C48.1113 24.0898 47.929 24.4909 47.5645 24.8281C47.1999 25.1654 46.6986 25.334 46.0605 25.334H44.9395ZM37.9395 23.584C37.3014 23.584 36.8001 23.4154 36.4355 23.0781C36.071 22.7409 35.8887 22.3398 35.8887 21.875C35.8887 21.4102 36.071 21.0091 36.4355 20.6719C36.8001 20.3346 37.3014 20.166 37.9395 20.166H39.0605C39.6986 20.166 40.1999 20.3346 40.5645 20.6719C40.929 21.0091 41.1113 21.4102 41.1113 21.875C41.1113 22.3398 40.929 22.7409 40.5645 23.0781C40.1999 23.4154 39.6986 23.584 39.0605 23.584H37.9395ZM44.9395 23.584C44.3014 23.584 43.8001 23.4154 43.4355 23.0781C43.071 22.7409 42.8887 22.3398 42.8887 21.875C42.8887 21.4102 43.071 21.0091 43.4355 20.6719C43.8001 20.3346 44.3014 20.166 44.9395 20.166H46.0605C46.6986 20.166 47.1999 20.3346 47.5645 20.6719C47.929 21.0091 48.1113 21.4102 48.1113 21.875C48.1113 22.3398 47.929 22.7409 47.5645 23.0781C47.1999 23.4154 46.6986 23.584 46.0605 23.584H44.9395ZM37.9395 21.834C37.3014 21.834 36.8001 21.6654 36.4355 21.3281C36.071 20.9909 35.8887 20.5898 35.8887 20.125C35.8887 19.6602 36.071 19.2591 36.4355 18.9219C36.8001 18.5846 37.3014 18.416 37.9395 18.416H39.0605C39.6986 18.416 40.1999 18.5846 40.5645 18.9219C40.929 19.2591 41.1113 19.6602 41.1113 20.125C41.1113 20.5898 40.929 20.9909 40.5645 21.3281C40.1999 21.6654 39.6986 21.834 39.0605 21.834H37.9395ZM44.9395 21.834C44.3014 21.834 43.8001 21.6654 43.4355 21.3281C43.071 20.9909 42.8887 20.5898 42.8887 20.125C42.8887 19.6602 43.071 19.2591 43.4355 18.9219C43.8001 18.5846 44.3014 18.416 44.9395 18.416H46.0605C46.6986 18.416 47.1999 18.5846 47.5645 18.9219C47.929 19.2591 48.1113 19.6602 48.1113 20.125C48.1113 20.5898 47.929 20.9909 47.5645 21.3281C47.1999 21.6654 46.6986 21.834 46.0605 21.834H44.9395ZM37.9395 20.084C37.3014 20.084 36.8001 19.9154 36.4355 19.5781C36.071 19.2409 35.8887 18.8398 35.8887 18.375C35.8887 17.9102 36.071 17.5091 36.4355 17.1719C36.8001 16.8346 37.3014 16.666 37.9395 16.666H39.0605C39.6986 16.666 40.1999 16.8346 40.5645 17.1719C40.929 17.5091 41.1113 17.9102 41.1113 18.375C41.1113 18.8398 40.929 19.2409 40.5645 19.5781C40.1999 19.9154 39.6986 20.084 39.0605 20.084H37.9395ZM44.9395 20.084C44.3014 20.084 43.8001 19.9154 43.4355 19.5781C43.071 19.2409 42.8887 18.8398 42.8887 18.375C42.8887 17.9102 43.071 17.5091 43.4355 17.1719C43.8001 16.8346 44.3014 16.666 44.9395 16.666H46.0605C46.6986 16.666 47.1999 16.8346 47.5645 17.1719C47.929 17.5091 48.1113 17.9102 48.1113 18.375C48.1113 18.8398 47.929 19.2409 47.5645 19.5781C47.1999 19.9154 46.6986 20.084 46.0605 20.084H44.9395ZM39.6895 18.334C39.0514 18.334 38.5501 18.1654 38.1855 17.8281C37.821 17.4909 37.6387 17.0898 37.6387 16.625C37.6387 16.1602 37.821 15.7591 38.1855 15.4219C38.5501 15.0846 39.0514 14.916 39.6895 14.916H44.3105C44.9486 14.916 45.4499 15.0846 45.8145 15.4219C46.179 15.7591 46.3613 16.1602 46.3613 16.625C46.3613 17.0898 46.179 17.4909 45.8145 17.8281C45.4499 18.1654 44.9486 18.334 44.3105 18.334H39.6895Z" fill="#40FF00"/>
<path d="M62.4395 14.834C61.8014 14.834 61.3001 14.6654 60.9355 14.3281C60.571 13.9909 60.3887 13.5898 60.3887 13.125C60.3887 12.6602 60.571 12.2591 60.9355 11.9219C61.3001 11.5846 61.8014 11.416 62.4395 11.416H63.5605C64.1986 11.416 64.6999 11.5846 65.0645 11.9219C65.429 12.2591 65.6113 12.6602 65.6113 13.125C65.6113 13.5898 65.429 13.9909 65.0645 14.3281C64.6999 14.6654 64.1986 14.834 63.5605 14.834H62.4395ZM62.4395 13.084C61.8014 13.084 61.3001 12.9154 60.9355 12.5781C60.571 12.2409 60.3887 11.8398 60.3887 11.375C60.3887 10.9102 60.571 10.5091 60.9355 10.1719C61.3001 9.83464 61.8014 9.66602 62.4395 9.66602H63.5605C64.1986 9.66602 64.6999 9.83464 65.0645 10.1719C65.429 10.5091 65.6113 10.9102 65.6113 11.375C65.6113 11.8398 65.429 12.2409 65.0645 12.5781C64.6999 12.9154 64.1986 13.084 63.5605 13.084H62.4395ZM62.4395 11.334C61.8014 11.334 61.3001 11.1654 60.9355 10.8281C60.571 10.4909 60.3887 10.0898 60.3887 9.625C60.3887 9.16016 60.571 8.75911 60.9355 8.42188C61.3001 8.08464 61.8014 7.91602 62.4395 7.91602H63.5605C64.1986 7.91602 64.6999 8.08464 65.0645 8.42188C65.429 8.75911 65.6113 9.16016 65.6113 9.625C65.6113 10.0898 65.429 10.4909 65.0645 10.8281C64.6999 11.1654 64.1986 11.334 63.5605 11.334H62.4395ZM60.6895 9.58398C60.0514 9.58398 59.5501 9.41536 59.1855 9.07812C58.821 8.74089 58.6387 8.33984 58.6387 7.875C58.6387 7.41016 58.821 7.00911 59.1855 6.67188C59.5501 6.33464 60.0514 6.16602 60.6895 6.16602H65.3105C65.9486 6.16602 66.4499 6.33464 66.8145 6.67188C67.179 7.00911 67.3613 7.41016 67.3613 7.875C67.3613 8.33984 67.179 8.74089 66.8145 9.07812C66.4499 9.41536 65.9486 9.58398 65.3105 9.58398H60.6895ZM58.9395 7.83398C58.3014 7.83398 57.8001 7.66536 57.4355 7.32812C57.071 6.99089 56.8887 6.58984 56.8887 6.125C56.8887 5.66016 57.071 5.25911 57.4355 4.92188C57.8001 4.58464 58.3014 4.41602 58.9395 4.41602H60.0605C60.6986 4.41602 61.1999 4.58464 61.5645 4.92188C61.929 5.25911 62.1113 5.66016 62.1113 6.125C62.1113 6.58984 61.929 6.99089 61.5645 7.32812C61.1999 7.66536 60.6986 7.83398 60.0605 7.83398H58.9395ZM65.9395 7.83398C65.3014 7.83398 64.8001 7.66536 64.4355 7.32812C64.071 6.99089 63.8887 6.58984 63.8887 6.125C63.8887 5.66016 64.071 5.25911 64.4355 4.92188C64.8001 4.58464 65.3014 4.41602 65.9395 4.41602H67.0605C67.6986 4.41602 68.1999 4.58464 68.5645 4.92188C68.929 5.25911 69.1113 5.66016 69.1113 6.125C69.1113 6.58984 68.929 6.99089 68.5645 7.32812C68.1999 7.66536 67.6986 7.83398 67.0605 7.83398H65.9395ZM58.9395 6.08398C58.3014 6.08398 57.8001 5.91536 57.4355 5.57812C57.071 5.24089 56.8887 4.83984 56.8887 4.375C56.8887 3.91016 57.071 3.50911 57.4355 3.17188C57.8001 2.83464 58.3014 2.66602 58.9395 2.66602H60.0605C60.6986 2.66602 61.1999 2.83464 61.5645 3.17188C61.929 3.50911 62.1113 3.91016 62.1113 4.375C62.1113 4.83984 61.929 5.24089 61.5645 5.57812C61.1999 5.91536 60.6986 6.08398 60.0605 6.08398H58.9395ZM65.9395 6.08398C65.3014 6.08398 64.8001 5.91536 64.4355 5.57812C64.071 5.24089 63.8887 4.83984 63.8887 4.375C63.8887 3.91016 64.071 3.50911 64.4355 3.17188C64.8001 2.83464 65.3014 2.66602 65.9395 2.66602H67.0605C67.6986 2.66602 68.1999 2.83464 68.5645 3.17188C68.929 3.50911 69.1113 3.91016 69.1113 4.375C69.1113 4.83984 68.929 5.24089 68.5645 5.57812C68.1999 5.91536 67.6986 6.08398 67.0605 6.08398H65.9395ZM58.9395 4.33398C58.3014 4.33398 57.8001 4.16536 57.4355 3.82812C57.071 3.49089 56.8887 3.08984 56.8887 2.625C56.8887 2.16016 57.071 1.75911 57.4355 1.42188C57.8001 1.08464 58.3014 0.916016 58.9395 0.916016H60.0605C60.6986 0.916016 61.1999 1.08464 61.5645 1.42188C61.929 1.75911 62.1113 2.16016 62.1113 2.625C62.1113 3.08984 61.929 3.49089 61.5645 3.82812C61.1999 4.16536 60.6986 4.33398 60.0605 4.33398H58.9395ZM65.9395 4.33398C65.3014 4.33398 64.8001 4.16536 64.4355 3.82812C64.071 3.49089 63.8887 3.08984 63.8887 2.625C63.8887 2.16016 64.071 1.75911 64.4355 1.42188C64.8001 1.08464 65.3014 0.916016 65.9395 0.916016H67.0605C67.6986 0.916016 68.1999 1.08464 68.5645 1.42188C68.929 1.75911 69.1113 2.16016 69.1113 2.625C69.1113 3.08984 68.929 3.49089 68.5645 3.82812C68.1999 4.16536 67.6986 4.33398 67.0605 4.33398H65.9395Z" fill="white"/>
<path d="M62.4395 14.834C61.8014 14.834 61.3001 14.6654 60.9355 14.3281C60.571 13.9909 60.3887 13.5898 60.3887 13.125C60.3887 12.6602 60.571 12.2591 60.9355 11.9219C61.3001 11.5846 61.8014 11.416 62.4395 11.416H63.5605C64.1986 11.416 64.6999 11.5846 65.0645 11.9219C65.429 12.2591 65.6113 12.6602 65.6113 13.125C65.6113 13.5898 65.429 13.9909 65.0645 14.3281C64.6999 14.6654 64.1986 14.834 63.5605 14.834H62.4395ZM62.4395 13.084C61.8014 13.084 61.3001 12.9154 60.9355 12.5781C60.571 12.2409 60.3887 11.8398 60.3887 11.375C60.3887 10.9102 60.571 10.5091 60.9355 10.1719C61.3001 9.83464 61.8014 9.66602 62.4395 9.66602H63.5605C64.1986 9.66602 64.6999 9.83464 65.0645 10.1719C65.429 10.5091 65.6113 10.9102 65.6113 11.375C65.6113 11.8398 65.429 12.2409 65.0645 12.5781C64.6999 12.9154 64.1986 13.084 63.5605 13.084H62.4395ZM62.4395 11.334C61.8014 11.334 61.3001 11.1654 60.9355 10.8281C60.571 10.4909 60.3887 10.0898 60.3887 9.625C60.3887 9.16016 60.571 8.75911 60.9355 8.42188C61.3001 8.08464 61.8014 7.91602 62.4395 7.91602H63.5605C64.1986 7.91602 64.6999 8.08464 65.0645 8.42188C65.429 8.75911 65.6113 9.16016 65.6113 9.625C65.6113 10.0898 65.429 10.4909 65.0645 10.8281C64.6999 11.1654 64.1986 11.334 63.5605 11.334H62.4395ZM60.6895 9.58398C60.0514 9.58398 59.5501 9.41536 59.1855 9.07812C58.821 8.74089 58.6387 8.33984 58.6387 7.875C58.6387 7.41016 58.821 7.00911 59.1855 6.67188C59.5501 6.33464 60.0514 6.16602 60.6895 6.16602H65.3105C65.9486 6.16602 66.4499 6.33464 66.8145 6.67188C67.179 7.00911 67.3613 7.41016 67.3613 7.875C67.3613 8.33984 67.179 8.74089 66.8145 9.07812C66.4499 9.41536 65.9486 9.58398 65.3105 9.58398H60.6895ZM58.9395 7.83398C58.3014 7.83398 57.8001 7.66536 57.4355 7.32812C57.071 6.99089 56.8887 6.58984 56.8887 6.125C56.8887 5.66016 57.071 5.25911 57.4355 4.92188C57.8001 4.58464 58.3014 4.41602 58.9395 4.41602H60.0605C60.6986 4.41602 61.1999 4.58464 61.5645 4.92188C61.929 5.25911 62.1113 5.66016 62.1113 6.125C62.1113 6.58984 61.929 6.99089 61.5645 7.32812C61.1999 7.66536 60.6986 7.83398 60.0605 7.83398H58.9395ZM65.9395 7.83398C65.3014 7.83398 64.8001 7.66536 64.4355 7.32812C64.071 6.99089 63.8887 6.58984 63.8887 6.125C63.8887 5.66016 64.071 5.25911 64.4355 4.92188C64.8001 4.58464 65.3014 4.41602 65.9395 4.41602H67.0605C67.6986 4.41602 68.1999 4.58464 68.5645 4.92188C68.929 5.25911 69.1113 5.66016 69.1113 6.125C69.1113 6.58984 68.929 6.99089 68.5645 7.32812C68.1999 7.66536 67.6986 7.83398 67.0605 7.83398H65.9395ZM58.9395 6.08398C58.3014 6.08398 57.8001 5.91536 57.4355 5.57812C57.071 5.24089 56.8887 4.83984 56.8887 4.375C56.8887 3.91016 57.071 3.50911 57.4355 3.17188C57.8001 2.83464 58.3014 2.66602 58.9395 2.66602H60.0605C60.6986 2.66602 61.1999 2.83464 61.5645 3.17188C61.929 3.50911 62.1113 3.91016 62.1113 4.375C62.1113 4.83984 61.929 5.24089 61.5645 5.57812C61.1999 5.91536 60.6986 6.08398 60.0605 6.08398H58.9395ZM65.9395 6.08398C65.3014 6.08398 64.8001 5.91536 64.4355 5.57812C64.071 5.24089 63.8887 4.83984 63.8887 4.375C63.8887 3.91016 64.071 3.50911 64.4355 3.17188C64.8001 2.83464 65.3014 2.66602 65.9395 2.66602H67.0605C67.6986 2.66602 68.1999 2.83464 68.5645 3.17188C68.929 3.50911 69.1113 3.91016 69.1113 4.375C69.1113 4.83984 68.929 5.24089 68.5645 5.57812C68.1999 5.91536 67.6986 6.08398 67.0605 6.08398H65.9395ZM58.9395 4.33398C58.3014 4.33398 57.8001 4.16536 57.4355 3.82812C57.071 3.49089 56.8887 3.08984 56.8887 2.625C56.8887 2.16016 57.071 1.75911 57.4355 1.42188C57.8001 1.08464 58.3014 0.916016 58.9395 0.916016H60.0605C60.6986 0.916016 61.1999 1.08464 61.5645 1.42188C61.929 1.75911 62.1113 2.16016 62.1113 2.625C62.1113 3.08984 61.929 3.49089 61.5645 3.82812C61.1999 4.16536 60.6986 4.33398 60.0605 4.33398H58.9395ZM65.9395 4.33398C65.3014 4.33398 64.8001 4.16536 64.4355 3.82812C64.071 3.49089 63.8887 3.08984 63.8887 2.625C63.8887 2.16016 64.071 1.75911 64.4355 1.42188C64.8001 1.08464 65.3014 0.916016 65.9395 0.916016H67.0605C67.6986 0.916016 68.1999 1.08464 68.5645 1.42188C68.929 1.75911 69.1113 2.16016 69.1113 2.625C69.1113 3.08984 68.929 3.49089 68.5645 3.82812C68.1999 4.16536 67.6986 4.33398 67.0605 4.33398H65.9395Z" fill="black"/>
</svg>
