<svg width="20" height="24" viewBox="0 0 20 24" fill="none" xmlns="http://www.w3.org/2000/svg">
<path opacity="0.2" fill-rule="evenodd" clip-rule="evenodd" d="M2.59267 6C2.0813 6 1.66675 6.53726 1.66675 7.2V16.8C1.66675 17.4627 2.0813 18 2.59267 18H17.4075C17.9189 18 18.3334 17.4627 18.3334 16.8V7.2C18.3334 6.53726 17.9189 6 17.4075 6H2.59267ZM10.0001 15C11.2785 15 12.3149 13.6569 12.3149 12C12.3149 10.3431 11.2785 9 10.0001 9C8.72164 9 7.68527 10.3431 7.68527 12C7.68527 13.6569 8.72164 15 10.0001 15Z" fill="black"/>
<path d="M5.00008 9.5V14.5M15.0001 9.5V14.5M2.59267 6H17.4075C17.9189 6 18.3334 6.53726 18.3334 7.2V16.8C18.3334 17.4627 17.9189 18 17.4075 18H2.59267C2.0813 18 1.66675 17.4627 1.66675 16.8V7.2C1.66675 6.53726 2.0813 6 2.59267 6ZM12.0834 12C12.0834 13.3807 11.1507 14.5 10.0001 14.5C8.84949 14.5 7.91675 13.3807 7.91675 12C7.91675 10.6193 8.84949 9.5 10.0001 9.5C11.1507 9.5 12.0834 10.6193 12.0834 12Z" stroke="black" stroke-width="1.5" stroke-linecap="round" stroke-linejoin="round"/>
</svg>
